<svg width="15" height="19" viewBox="0 0 15 19" fill="none" xmlns="http://www.w3.org/2000/svg">
<path d="M8.78125 13.4375C9.44689 13.4381 10.1094 13.3467 10.75 13.1658V16.3906C10.75 16.9998 10.508 17.584 10.0773 18.0148C9.64651 18.4455 9.06229 18.6875 8.45312 18.6875H2.54688C1.93771 18.6875 1.35349 18.4455 0.922739 18.0148C0.491992 17.584 0.25 16.9998 0.25 16.3906V2.60938C0.25 1.3415 1.279 0.3125 2.54688 0.3125H4.62981C3.37451 1.19463 2.43292 2.45378 1.94164 3.90725C1.45036 5.36072 1.43495 6.93291 1.89764 8.39574C2.36033 9.85856 3.27706 11.1359 4.51482 12.0425C5.75258 12.9491 7.247 13.4377 8.78125 13.4375ZM4.1875 14.75C4.01345 14.75 3.84653 14.8191 3.72346 14.9422C3.60039 15.0653 3.53125 15.2322 3.53125 15.4062C3.53125 15.5803 3.60039 15.7472 3.72346 15.8703C3.84653 15.9934 4.01345 16.0625 4.1875 16.0625H6.8125C6.98655 16.0625 7.15347 15.9934 7.27654 15.8703C7.39961 15.7472 7.46875 15.5803 7.46875 15.4062C7.46875 15.2322 7.39961 15.0653 7.27654 14.9422C7.15347 14.8191 6.98655 14.75 6.8125 14.75H4.1875ZM14.6875 6.21875C14.6875 6.99437 14.5347 7.76239 14.2379 8.47897C13.9411 9.19555 13.506 9.84665 12.9576 10.3951C12.4092 10.9435 11.7581 11.3786 11.0415 11.6754C10.3249 11.9722 9.55687 12.125 8.78125 12.125C8.00563 12.125 7.23761 11.9722 6.52103 11.6754C5.80445 11.3786 5.15335 10.9435 4.6049 10.3951C4.05645 9.84665 3.6214 9.19555 3.32459 8.47897C3.02777 7.76239 2.875 6.99437 2.875 6.21875C2.875 4.65232 3.49726 3.15004 4.6049 2.0424C5.71254 0.934764 7.21482 0.3125 8.78125 0.3125C10.3477 0.3125 11.85 0.934764 12.9576 2.0424C14.0652 3.15004 14.6875 4.65232 14.6875 6.21875ZM11.8709 3.78537C11.8099 3.72426 11.7375 3.67577 11.6578 3.64269C11.578 3.60961 11.4926 3.59258 11.4062 3.59258C11.3199 3.59258 11.2345 3.60961 11.1547 3.64269C11.075 3.67577 11.0026 3.72426 10.9416 3.78537L7.46875 7.25956L6.62088 6.41037C6.55986 6.34936 6.48742 6.30096 6.4077 6.26794C6.32798 6.23492 6.24254 6.21792 6.15625 6.21792C6.06996 6.21792 5.98452 6.23492 5.9048 6.26794C5.82508 6.30096 5.75264 6.34936 5.69162 6.41037C5.63061 6.47139 5.58221 6.54383 5.54919 6.62355C5.51617 6.70327 5.49917 6.78871 5.49917 6.875C5.49917 6.96129 5.51617 7.04673 5.54919 7.12645C5.58221 7.20617 5.63061 7.27861 5.69162 7.33963L7.00412 8.65213C7.06508 8.71324 7.1375 8.76173 7.21723 8.79481C7.29696 8.82789 7.38243 8.84492 7.46875 8.84492C7.55507 8.84492 7.64054 8.82789 7.72027 8.79481C7.8 8.76173 7.87242 8.71324 7.93338 8.65213L11.8709 4.71463C11.932 4.65367 11.9805 4.58125 12.0136 4.50152C12.0466 4.42179 12.0637 4.33632 12.0637 4.25C12.0637 4.16368 12.0466 4.07821 12.0136 3.99848C11.9805 3.91875 11.932 3.84633 11.8709 3.78537Z" fill="#174532"/>
</svg>
