<svg width="46" height="42" viewBox="0 0 46 42" fill="none" xmlns="http://www.w3.org/2000/svg">
<path d="M23 0L46 9V12H42.9333C42.9333 12.4062 42.7696 12.7578 42.4422 13.0547C42.1148 13.3516 41.7274 13.5 41.2802 13.5H4.71979C4.27257 13.5 3.88524 13.3516 3.55781 13.0547C3.23038 12.7578 3.06667 12.4062 3.06667 12H0V9L23 0ZM6.13333 15H12.2667V33H15.3333V15H21.4667V33H24.5333V15H30.6667V33H33.7333V15H39.8667V33H41.2802C41.7274 33 42.1148 33.1484 42.4422 33.4453C42.7696 33.7422 42.9333 34.0938 42.9333 34.5V36H3.06667V34.5C3.06667 34.0938 3.23038 33.7422 3.55781 33.4453C3.88524 33.1484 4.27257 33 4.71979 33H6.13333V15ZM44.3469 37.5C44.7941 37.5 45.1814 37.6484 45.5089 37.9453C45.8363 38.2422 46 38.5938 46 39V42H0V39C0 38.5938 0.163715 38.2422 0.491146 37.9453C0.818576 37.6484 1.2059 37.5 1.65312 37.5H44.3469Z" fill="#174532"/>
</svg>
