<svg width="86" height="266" viewBox="0 0 86 266" fill="none" xmlns="http://www.w3.org/2000/svg">
<rect x="0.0688477" y="0.298828" width="85.1172" height="264.809" rx="30" fill="#1EAAE7" fill-opacity="0.08"/>
<path d="M84.481 94.4771C84.4463 86.0745 72.9264 83.7428 69.6268 91.4705L60.6127 112.582C57.8774 118.988 49.7099 120.897 44.4186 116.367L42.5303 114.75C37.1873 110.176 29.0132 111.509 25.4012 117.544L19.777 126.942C17.5813 130.611 12.1941 130.39 10.3058 126.554C7.78319 121.429 0.0688477 123.225 0.0688477 128.937V239.315C0.0688477 253.56 11.6168 265.108 25.862 265.108H59.2862C73.573 265.108 85.1381 253.495 85.0791 239.209L84.481 94.4771Z" fill="#9BC94A"/>
<path d="M0.0688477 164.601C0.0688477 156.156 9.92793 151.551 16.4045 156.971C23.4842 163.575 34.7474 162.487 40.433 154.651L50.1154 141.307C56.5841 132.392 69.1725 130.652 77.8166 137.479C82.4708 141.155 85.1861 146.759 85.1861 152.69V239.315C85.1861 253.56 73.6381 265.108 59.393 265.108H25.862C11.6168 265.108 0.0688477 253.56 0.0688477 239.315V164.601Z" fill="#1EAAE7"/>
<path d="M85.1861 160.372L85.0921 148.383C85.0004 136.691 69.4754 132.684 63.7365 142.872C60.6306 148.385 53.6315 150.319 48.1356 147.182L42.6722 144.063C41.4999 143.394 40.4081 142.593 39.4182 141.675L34.351 136.977C21.2897 124.866 0.0688477 134.13 0.0688477 151.941V239.315C0.0688477 253.56 11.6168 265.108 25.862 265.108H59.393C73.6381 265.108 85.1861 253.56 85.1861 239.315V160.372Z" fill="url(#paint0_linear_222_1189)" fill-opacity="0.56"/>
<defs>
<linearGradient id="paint0_linear_222_1189" x1="10.3861" y1="95.6976" x2="124.46" y2="233.801" gradientUnits="userSpaceOnUse">
<stop stop-color="#9BC94A"/>
<stop offset="1" stop-color="#9BC94A"/>
</linearGradient>
</defs>
</svg>
