<svg width="52" height="40" viewBox="0 0 52 40" fill="none" xmlns="http://www.w3.org/2000/svg">
<path d="M0 7C0 5.27609 0.68482 3.62279 1.90381 2.40381C3.12279 1.18482 4.77609 0.5 6.5 0.5H45.5C47.2239 0.5 48.8772 1.18482 50.0962 2.40381C51.3152 3.62279 52 5.27609 52 7V23.25H0V7ZM37.375 10.25C36.944 10.25 36.5307 10.4212 36.226 10.726C35.9212 11.0307 35.75 11.444 35.75 11.875V15.125C35.75 15.556 35.9212 15.9693 36.226 16.274C36.5307 16.5788 36.944 16.75 37.375 16.75H43.875C44.306 16.75 44.7193 16.5788 45.024 16.274C45.3288 15.9693 45.5 15.556 45.5 15.125V11.875C45.5 11.444 45.3288 11.0307 45.024 10.726C44.7193 10.4212 44.306 10.25 43.875 10.25H37.375ZM0 29.75V33C0 34.7239 0.68482 36.3772 1.90381 37.5962C3.12279 38.8152 4.77609 39.5 6.5 39.5H45.5C47.2239 39.5 48.8772 38.8152 50.0962 37.5962C51.3152 36.3772 52 34.7239 52 33V29.75H0Z" fill="#174532"/>
</svg>
