<svg width="245" height="166" viewBox="0 0 245 166" fill="none" xmlns="http://www.w3.org/2000/svg">
<path d="M39.8771 140.932C39.8771 147.705 35.6314 150.07 30.3945 150.07C30.2725 150.07 30.1513 150.069 30.0307 150.066C29.7881 150.061 29.5476 150.051 29.3103 150.035C24.5835 149.718 20.9111 147.231 20.9111 140.932C20.9111 134.414 29.6926 126.188 30.3549 125.578L30.3562 125.577C30.3813 125.553 30.3944 125.542 30.3944 125.542C30.3944 125.542 39.8771 134.158 39.8771 140.932Z" fill="white"/>
<path d="M30.0482 149.034L33.5169 144.438L30.0396 149.538L30.0304 150.066C29.7879 150.061 29.5473 150.051 29.3101 150.035L29.6838 143.258L29.6811 143.206L29.6877 143.196L29.7226 142.556L26.2368 137.442L29.7332 142.076L29.7417 142.211L30.0245 137.091L27.0402 131.808L30.0607 136.192L30.3547 125.578L30.356 125.542V125.577L30.3072 133.947L33.2777 130.629L30.2947 134.668L30.2163 139.252L32.9903 134.853L30.2044 139.927L30.1609 142.476L34.1878 136.352L30.1458 143.365L30.0482 149.034Z" fill="#CACCCF"/>
<path d="M160.358 101.766C157.824 93.044 143.756 86.6154 132.78 84.956V80.7662C132.983 80.6945 133.184 80.6207 133.385 80.5447C133.327 79.7074 133.15 78.8814 132.858 78.0895C137.546 76.2816 141.595 73.2445 144.53 69.3336C147.619 66.2675 149.947 62.5857 151.344 58.5571C152.74 54.5285 153.17 50.2548 152.602 46.0484C152.034 41.842 150.482 37.8091 148.06 34.2443C145.638 30.6796 142.407 27.673 138.603 25.4443C139.646 24.8204 140.457 23.9016 140.92 22.8175C141.383 21.7334 141.476 20.5386 141.185 19.4019C140.894 18.2651 140.234 17.2436 139.299 16.4816C138.363 15.7195 137.198 15.2553 135.97 15.1545C136.973 12.9078 137.152 10.4069 136.48 8.05188C135.807 5.69689 134.321 3.62396 132.259 2.16476C130.197 0.705563 127.679 -0.0555616 125.107 0.00316008C122.535 0.0618818 120.059 0.937055 118.073 2.48866C119.825 1.60485 121.787 1.16609 123.77 1.21506C125.754 1.26403 127.69 1.79908 129.39 2.76812C131.091 3.73717 132.498 5.10721 133.474 6.74493C134.451 8.38265 134.964 10.2323 134.964 12.1138C134.964 12.2095 134.958 12.3038 134.955 12.3989C134.905 10.8207 134.494 9.27178 133.75 7.85915C133.007 6.44652 131.949 5.20392 130.649 4.21731C129.349 3.2307 127.839 2.52362 126.223 2.14498C124.607 1.76634 122.923 1.72516 121.289 2.02432C119.654 2.32348 118.108 2.95582 116.756 3.8776C115.404 4.79939 114.28 5.98862 113.461 7.36304C112.642 8.73745 112.147 10.2643 112.011 11.8378C111.875 13.4114 112.101 14.9942 112.674 16.4767C111.796 16.6567 110.975 17.0294 110.276 17.5649C109.577 18.1003 109.021 18.7836 108.651 19.5599C108.281 20.3363 108.108 21.184 108.146 22.0352C108.184 22.8864 108.432 23.7172 108.87 24.4611C104.71 26.5339 101.122 29.5037 98.3934 33.1317C95.6649 36.7597 93.8725 40.9445 93.1604 45.3493C92.4483 49.7541 92.8363 54.256 94.2934 58.4926C95.7504 62.7292 98.2357 66.5823 101.549 69.7418C104.341 73.3096 108.076 76.1161 112.376 77.8787V84.8624C101.283 86.3654 86.6745 92.9135 84.122 101.851C81.8976 109.639 79.5232 118.192 78.3418 123.214C88.4682 129.962 109.717 133.925 123.033 133.925C135.685 133.925 156.365 130.348 166.193 124.204C165.128 118.686 162.679 109.757 160.358 101.766ZM140.073 21.1991C140.073 21.2984 140.068 21.3967 140.063 21.4946C139.989 20.263 139.476 19.0917 138.609 18.1721C137.742 17.2525 136.572 16.6389 135.29 16.4316C135.401 16.2528 135.507 16.071 135.608 15.886C136.876 16.1617 138.009 16.8373 138.82 17.8024C139.631 18.7675 140.072 19.965 140.073 21.1991Z" fill="url(#paint0_linear_212_985)"/>
<path d="M123.011 132.017C135.303 132.017 155.394 128.542 164.942 122.573C163.908 117.212 161.528 108.538 159.273 100.774C156.401 90.8878 138.275 84.0337 127.463 84.0337H117.043C106.197 84.0337 88.0446 90.9275 85.2088 100.856C83.0478 108.423 80.741 116.733 79.5933 121.611C89.4312 128.167 110.074 132.017 123.011 132.017Z" fill="#FF3A44"/>
<path d="M122.814 77.8156C138.919 77.8156 151.975 65.4333 151.975 50.159C151.975 34.8847 138.919 22.5024 122.814 22.5024C106.709 22.5024 93.6528 34.8847 93.6528 50.159C93.6528 65.4333 106.709 77.8156 122.814 77.8156Z" fill="#25282B"/>
<path d="M114.941 69.3828H130.198C130.803 69.3828 131.384 69.6109 131.812 70.0169C132.24 70.423 132.48 70.9736 132.48 71.5479V86.3432C132.48 87.5106 132.238 88.6665 131.767 89.7451C131.296 90.8236 130.605 91.8036 129.735 92.6291C128.865 93.4546 127.831 94.1094 126.694 94.5561C125.557 95.0029 124.338 95.2328 123.107 95.2328H122.031C120.8 95.2328 119.581 95.0029 118.444 94.5561C117.307 94.1094 116.273 93.4546 115.403 92.6291C114.533 91.8036 113.842 90.8236 113.371 89.7451C112.9 88.6665 112.658 87.5106 112.658 86.3432V71.5479C112.658 71.2635 112.717 70.982 112.831 70.7193C112.946 70.4566 113.114 70.218 113.326 70.0169C113.538 69.8159 113.79 69.6564 114.067 69.5476C114.344 69.4388 114.641 69.3828 114.941 69.3828Z" fill="#FDA57D"/>
<path opacity="0.05" d="M123.485 81.909C126.768 81.9108 130.021 81.3163 133.069 80.1577C132.913 77.8751 131.847 75.7343 130.087 74.1697C128.328 72.6051 126.007 71.7339 123.595 71.7329H122.783C120.411 71.7334 118.125 72.5751 116.374 74.0925C114.623 75.61 113.534 77.6936 113.321 79.9338C116.532 81.2405 119.991 81.9126 123.485 81.909Z" fill="black"/>
<path d="M122.865 79.5588C137.114 79.5588 148.664 68.6043 148.664 55.0912C148.664 41.5781 137.114 30.6235 122.865 30.6235C108.617 30.6235 97.0669 41.5781 97.0669 55.0912C97.0669 68.6043 108.617 79.5588 122.865 79.5588Z" fill="#FDA57D"/>
<path d="M114.127 28.3866C117.211 28.3866 119.711 26.0155 119.711 23.0906C119.711 20.1657 117.211 17.7947 114.127 17.7947C111.043 17.7947 108.543 20.1657 108.543 23.0906C108.543 26.0155 111.043 28.3866 114.127 28.3866Z" fill="#25282B"/>
<path d="M133.981 28.3866C137.065 28.3866 139.565 26.0155 139.565 23.0906C139.565 20.1657 137.065 17.7947 133.981 17.7947C130.898 17.7947 128.397 20.1657 128.397 23.0906C128.397 26.0155 130.898 28.3866 133.981 28.3866Z" fill="#25282B"/>
<path d="M123.434 24.8566C129.602 24.8566 134.602 20.1145 134.602 14.2647C134.602 8.41499 129.602 3.67285 123.434 3.67285C117.266 3.67285 112.266 8.41499 112.266 14.2647C112.266 20.1145 117.266 24.8566 123.434 24.8566Z" fill="#25282B"/>
<path d="M135.223 16.6177C134.112 16.6161 133.027 16.9299 132.106 17.5188C133.388 17.0847 134.792 17.1093 136.055 17.5879C137.318 18.0666 138.354 18.9664 138.967 20.1182C139.58 21.27 139.728 22.5945 139.384 23.8428C139.04 25.091 138.227 26.1771 137.098 26.8969C138.337 26.4783 139.381 25.6578 140.045 24.5804C140.708 23.5029 140.949 22.2378 140.725 21.0082C140.501 19.7787 139.826 18.6638 138.819 17.8605C137.812 17.0571 136.538 16.617 135.223 16.6177Z" fill="#25282B"/>
<path d="M125.296 1.90724C122.703 1.90351 120.191 2.75869 118.193 4.32503C120.637 3.09262 123.477 2.76509 126.161 3.40598C128.846 4.04687 131.183 5.61048 132.721 7.79354C134.259 9.97659 134.886 12.6235 134.483 15.2208C134.079 17.818 132.673 20.1806 130.537 21.8502C132.737 20.7412 134.483 18.966 135.497 16.8071C136.511 14.6482 136.735 12.2297 136.132 9.9365C135.529 7.6433 134.135 5.60718 132.172 4.15219C130.208 2.6972 127.787 1.90696 125.296 1.90724Z" fill="#25282B"/>
<path d="M104.2 33.094C104.2 33.094 107.302 52.5124 146.39 41.9205L127.157 26.0327L104.2 33.094Z" fill="#25282B"/>
<path d="M38.5771 144.301H22.516C19.5292 144.301 17.1079 146.597 17.1079 149.43V150.019C17.1079 152.851 19.5292 155.148 22.516 155.148H38.5771C41.5639 155.148 43.9852 152.851 43.9852 150.019V149.43C43.9852 146.597 41.5639 144.301 38.5771 144.301Z" fill="#6D8B62"/>
<g opacity="0.7">
<path opacity="0.7" d="M225.116 137.372V133.463H204.51V151.54C204.51 152.551 204.933 153.52 205.687 154.235C206.44 154.95 207.462 155.351 208.528 155.351H221.098C222.163 155.351 223.185 154.95 223.939 154.235C224.692 153.52 225.116 152.551 225.116 151.54V147.534C226.537 147.534 227.899 146.999 228.904 146.046C229.909 145.093 230.473 143.8 230.473 142.453C230.473 141.105 229.909 139.813 228.904 138.86C227.899 137.907 226.537 137.372 225.116 137.372ZM225.116 145.58V139.326C225.989 139.327 226.827 139.657 227.445 140.243C228.062 140.829 228.409 141.624 228.409 142.453C228.409 143.282 228.062 144.076 227.445 144.663C226.827 145.249 225.989 145.579 225.116 145.58Z" fill="url(#paint1_linear_212_985)"/>
</g>
<path d="M224.452 137.983C223.485 137.983 222.539 138.255 221.735 138.765C220.93 139.275 220.303 139.999 219.933 140.847C219.563 141.695 219.466 142.627 219.655 143.527C219.843 144.427 220.309 145.254 220.993 145.903C221.677 146.552 222.549 146.993 223.498 147.172C224.447 147.351 225.43 147.26 226.324 146.908C227.218 146.557 227.982 145.963 228.519 145.2C229.057 144.437 229.344 143.54 229.344 142.622C229.344 142.013 229.217 141.41 228.972 140.847C228.726 140.284 228.365 139.773 227.911 139.342C227.457 138.911 226.918 138.569 226.324 138.336C225.731 138.103 225.095 137.983 224.452 137.983ZM224.452 145.477C223.857 145.477 223.275 145.31 222.78 144.996C222.285 144.682 221.899 144.236 221.671 143.715C221.443 143.193 221.384 142.619 221.5 142.065C221.616 141.511 221.903 141.003 222.324 140.603C222.745 140.204 223.281 139.932 223.865 139.822C224.449 139.712 225.054 139.769 225.604 139.985C226.154 140.201 226.624 140.567 226.955 141.036C227.286 141.506 227.462 142.058 227.462 142.622C227.462 143.379 227.145 144.106 226.581 144.641C226.016 145.176 225.251 145.477 224.452 145.477Z" fill="#C3B5A1"/>
<path opacity="0.1" d="M224.452 137.983C223.485 137.983 222.539 138.255 221.735 138.765C220.93 139.275 220.303 139.999 219.933 140.847C219.563 141.695 219.466 142.627 219.655 143.527C219.843 144.427 220.309 145.254 220.993 145.903C221.677 146.552 222.549 146.993 223.498 147.172C224.447 147.351 225.43 147.26 226.324 146.908C227.218 146.557 227.982 145.963 228.519 145.2C229.057 144.437 229.344 143.54 229.344 142.622C229.344 142.013 229.217 141.41 228.972 140.847C228.726 140.284 228.365 139.773 227.911 139.342C227.457 138.911 226.918 138.569 226.324 138.336C225.731 138.103 225.095 137.983 224.452 137.983ZM224.452 145.477C223.857 145.477 223.275 145.31 222.78 144.996C222.285 144.682 221.899 144.236 221.671 143.715C221.443 143.193 221.384 142.619 221.5 142.065C221.616 141.511 221.903 141.003 222.324 140.603C222.745 140.204 223.281 139.932 223.865 139.822C224.449 139.712 225.054 139.769 225.604 139.985C226.154 140.201 226.624 140.567 226.955 141.036C227.286 141.506 227.462 142.058 227.462 142.622C227.462 143.379 227.145 144.106 226.581 144.641C226.016 145.176 225.251 145.477 224.452 145.477Z" fill="black"/>
<path d="M205.638 134.415H224.452V150.902C224.452 151.829 224.064 152.719 223.372 153.375C222.68 154.031 221.742 154.4 220.764 154.4H209.326C208.348 154.4 207.41 154.031 206.718 153.375C206.027 152.719 205.638 151.829 205.638 150.902V134.415Z" fill="#C3B5A1"/>
<path d="M244.207 154.399H0V162.251H244.207V154.399Z" fill="#76ABDE"/>
<g opacity="0.7">
<path opacity="0.7" d="M168.546 97.6804H75.6615C72.6324 97.6804 70.1768 100.009 70.1768 102.882V149.197C70.1768 152.07 72.6324 154.399 75.6615 154.399H168.546C171.575 154.399 174.031 152.07 174.031 149.197V102.882C174.031 100.009 171.575 97.6804 168.546 97.6804Z" fill="url(#paint2_linear_212_985)"/>
</g>
<path d="M161.999 98.7275H82.2087C76.6027 98.7275 72.0581 103.038 72.0581 108.355V144.772C72.0581 150.089 76.6027 154.399 82.2087 154.399H161.999C167.605 154.399 172.149 150.089 172.149 144.772V108.355C172.149 103.038 167.605 98.7275 161.999 98.7275Z" fill="#D9DCEE"/>
<path d="M122.104 129.775C123.974 129.775 125.49 128.337 125.49 126.563C125.49 124.79 123.974 123.352 122.104 123.352C120.233 123.352 118.717 124.79 118.717 126.563C118.717 128.337 120.233 129.775 122.104 129.775Z" fill="white"/>
<path d="M233.859 162.25H10.3477V165.462H233.859V162.25Z" fill="#6B9AC8"/>
<path opacity="0.1" d="M233.859 162.25H10.3477V163.321H233.859V162.25Z" fill="black"/>
<path opacity="0.1" d="M221.066 134.415V150.92C221.066 151.843 220.679 152.728 219.991 153.38C219.303 154.033 218.37 154.4 217.397 154.4H219.278C220.251 154.4 221.185 154.033 221.873 153.38C222.561 152.728 222.947 151.843 222.947 150.92V134.415H221.066Z" fill="black"/>
<path d="M209.351 121.112C209.19 121.116 209.032 121.155 208.889 121.224C208.745 121.293 208.619 121.391 208.52 121.512C208.274 121.936 208.721 122.414 209.129 122.706C209.883 123.245 210.678 123.774 211.19 124.525C211.703 125.277 211.864 126.326 211.303 127.047C210.572 127.988 208.827 128.19 208.658 129.348C208.549 130.091 209.227 130.726 209.913 131.099C211.608 132.019 213.793 132.265 215.02 133.706C215.528 132.715 216.664 132.143 217.796 131.899C218.928 131.654 220.105 131.672 221.253 131.506C221.44 131.503 221.624 131.458 221.79 131.375C221.955 131.291 222.098 131.172 222.206 131.027C222.527 130.409 221.613 129.668 221.928 129.048C222.168 128.576 222.874 128.613 223.39 128.424C224.229 128.116 224.575 127.092 224.337 126.269C224.098 125.446 223.426 124.803 222.718 124.276C220.812 122.855 218.519 122.02 216.2 121.419C215.122 121.139 213.856 120.701 212.736 120.658C211.655 120.617 210.421 120.938 209.351 121.112Z" fill="#EEEEEE"/>
<defs>
<linearGradient id="paint0_linear_212_985" x1="122.267" y1="133.925" x2="122.267" y2="0" gradientUnits="userSpaceOnUse">
<stop stop-color="#808080" stop-opacity="0.25"/>
<stop offset="0.53514" stop-color="#808080" stop-opacity="0.12"/>
<stop offset="1" stop-color="#808080" stop-opacity="0.1"/>
</linearGradient>
<linearGradient id="paint1_linear_212_985" x1="19509.8" y1="15648.1" x2="19509.8" y2="14312.6" gradientUnits="userSpaceOnUse">
<stop stop-color="#808080" stop-opacity="0.25"/>
<stop offset="0.53514" stop-color="#808080" stop-opacity="0.12"/>
<stop offset="1" stop-color="#808080" stop-opacity="0.1"/>
</linearGradient>
<linearGradient id="paint2_linear_212_985" x1="33594.6" y1="30904.9" x2="33594.6" y2="21937.7" gradientUnits="userSpaceOnUse">
<stop stop-color="#808080" stop-opacity="0.25"/>
<stop offset="0.53514" stop-color="#808080" stop-opacity="0.12"/>
<stop offset="1" stop-color="#808080" stop-opacity="0.1"/>
</linearGradient>
</defs>
</svg>
