<svg width="465" height="322" viewBox="0 0 465 322" fill="none" xmlns="http://www.w3.org/2000/svg">
<g filter="url(#filter0_d_222_1154)">
<rect x="19" y="14" width="426.446" height="283.724" rx="30" fill="#1EAAE7"/>
</g>
<mask id="mask0_222_1154" style="mask-type:alpha" maskUnits="userSpaceOnUse" x="19" y="14" width="427" height="284">
<rect x="19" y="14" width="426.446" height="283.724" rx="30" fill="#9BC94A"/>
</mask>
<g mask="url(#mask0_222_1154)">
<circle cx="414.924" cy="20.4483" r="120.798" fill="#64BB8F"/>
<circle cx="171.609" cy="326.526" r="112.2" fill="#64BB8F"/>
<circle cx="488.864" cy="298.154" r="133.194" stroke="#9BC94A"/>
<circle cx="488.864" cy="298.154" r="100.643" stroke="#9BC94A"/>
<circle cx="488.864" cy="298.154" r="68.091" stroke="#9BC94A"/>
<circle cx="38.3448" cy="18.7286" r="23.1437" stroke="#64BB8F"/>
<circle cx="38.345" cy="18.7288" r="17.387" stroke="#64BB8F"/>
<circle cx="38.3446" cy="18.7289" r="11.6302" stroke="#64BB8F"/>
</g>
<circle cx="100.248" cy="171.768" r="21.0644" fill="white" fill-opacity="0.43"/>
<circle cx="74.455" cy="171.768" r="21.0644" fill="white" fill-opacity="0.43"/>
<path d="M221.84 166.42L222.74 168.02L220 169.04L222.74 170.06L221.82 171.7L219.54 169.9L219.96 172.8H218.12L218.5 169.9L216.22 171.74L215.26 170.04L217.98 169.02L215.26 168.04L216.18 166.4L218.52 168.2L218.12 165.28H219.98L219.54 168.2L221.84 166.42ZM231.918 166.42L232.818 168.02L230.078 169.04L232.818 170.06L231.898 171.7L229.618 169.9L230.038 172.8H228.198L228.578 169.9L226.298 171.74L225.338 170.04L228.058 169.02L225.338 168.04L226.258 166.4L228.598 168.2L228.198 165.28H230.058L229.618 168.2L231.918 166.42ZM241.996 166.42L242.896 168.02L240.156 169.04L242.896 170.06L241.976 171.7L239.696 169.9L240.116 172.8H238.276L238.656 169.9L236.376 171.74L235.416 170.04L238.136 169.02L235.416 168.04L236.336 166.4L238.676 168.2L238.276 165.28H240.136L239.696 168.2L241.996 166.42ZM252.074 166.42L252.974 168.02L250.234 169.04L252.974 170.06L252.054 171.7L249.774 169.9L250.194 172.8H248.354L248.734 169.9L246.454 171.74L245.494 170.04L248.214 169.02L245.494 168.04L246.414 166.4L248.754 168.2L248.354 165.28H250.214L249.774 168.2L252.074 166.42ZM267.348 166.42L268.248 168.02L265.508 169.04L268.248 170.06L267.328 171.7L265.048 169.9L265.468 172.8H263.628L264.008 169.9L261.728 171.74L260.768 170.04L263.488 169.02L260.768 168.04L261.688 166.4L264.028 168.2L263.628 165.28H265.488L265.048 168.2L267.348 166.42ZM277.426 166.42L278.326 168.02L275.586 169.04L278.326 170.06L277.406 171.7L275.126 169.9L275.546 172.8H273.706L274.086 169.9L271.806 171.74L270.846 170.04L273.566 169.02L270.846 168.04L271.766 166.4L274.106 168.2L273.706 165.28H275.566L275.126 168.2L277.426 166.42ZM287.504 166.42L288.404 168.02L285.664 169.04L288.404 170.06L287.484 171.7L285.204 169.9L285.624 172.8H283.784L284.164 169.9L281.884 171.74L280.924 170.04L283.644 169.02L280.924 168.04L281.844 166.4L284.184 168.2L283.784 165.28H285.644L285.204 168.2L287.504 166.42ZM297.582 166.42L298.482 168.02L295.742 169.04L298.482 170.06L297.562 171.7L295.282 169.9L295.702 172.8H293.862L294.242 169.9L291.962 171.74L291.002 170.04L293.722 169.02L291.002 168.04L291.922 166.4L294.262 168.2L293.862 165.28H295.722L295.282 168.2L297.582 166.42ZM312.856 166.42L313.756 168.02L311.016 169.04L313.756 170.06L312.836 171.7L310.556 169.9L310.976 172.8H309.136L309.516 169.9L307.236 171.74L306.276 170.04L308.996 169.02L306.276 168.04L307.196 166.4L309.536 168.2L309.136 165.28H310.996L310.556 168.2L312.856 166.42ZM322.934 166.42L323.834 168.02L321.094 169.04L323.834 170.06L322.914 171.7L320.634 169.9L321.054 172.8H319.214L319.594 169.9L317.314 171.74L316.354 170.04L319.074 169.02L316.354 168.04L317.274 166.4L319.614 168.2L319.214 165.28H321.074L320.634 168.2L322.934 166.42ZM333.012 166.42L333.912 168.02L331.172 169.04L333.912 170.06L332.992 171.7L330.712 169.9L331.132 172.8H329.292L329.672 169.9L327.392 171.74L326.432 170.04L329.152 169.02L326.432 168.04L327.352 166.4L329.692 168.2L329.292 165.28H331.152L330.712 168.2L333.012 166.42ZM343.09 166.42L343.99 168.02L341.25 169.04L343.99 170.06L343.07 171.7L340.79 169.9L341.21 172.8H339.37L339.75 169.9L337.47 171.74L336.51 170.04L339.23 169.02L336.51 168.04L337.43 166.4L339.77 168.2L339.37 165.28H341.23L340.79 168.2L343.09 166.42ZM351.423 167.5V165.42H355.583V180H353.283V167.5H351.423ZM359.976 176.9C361.256 175.793 362.262 174.887 362.996 174.18C363.742 173.46 364.362 172.713 364.856 171.94C365.349 171.167 365.596 170.393 365.596 169.62C365.596 168.82 365.402 168.193 365.016 167.74C364.642 167.287 364.049 167.06 363.236 167.06C362.449 167.06 361.836 167.313 361.396 167.82C360.969 168.313 360.742 168.98 360.716 169.82H358.516C358.556 168.3 359.009 167.14 359.876 166.34C360.756 165.527 361.869 165.12 363.216 165.12C364.669 165.12 365.802 165.52 366.616 166.32C367.442 167.12 367.856 168.187 367.856 169.52C367.856 170.48 367.609 171.407 367.116 172.3C366.636 173.18 366.056 173.973 365.376 174.68C364.709 175.373 363.856 176.18 362.816 177.1L361.916 177.9H368.256V179.8H358.536V178.14L359.976 176.9ZM370.219 169.02C370.299 167.78 370.772 166.813 371.639 166.12C372.519 165.427 373.639 165.08 374.999 165.08C375.932 165.08 376.739 165.247 377.419 165.58C378.099 165.913 378.612 166.367 378.959 166.94C379.305 167.513 379.479 168.16 379.479 168.88C379.479 169.707 379.259 170.413 378.819 171C378.379 171.587 377.852 171.98 377.239 172.18V172.26C378.025 172.5 378.639 172.94 379.079 173.58C379.519 174.207 379.739 175.013 379.739 176C379.739 176.787 379.559 177.487 379.199 178.1C378.839 178.713 378.305 179.2 377.599 179.56C376.892 179.907 376.045 180.08 375.059 180.08C373.619 180.08 372.432 179.713 371.499 178.98C370.579 178.233 370.085 177.167 370.019 175.78H372.219C372.272 176.487 372.545 177.067 373.039 177.52C373.532 177.96 374.199 178.18 375.039 178.18C375.852 178.18 376.479 177.96 376.919 177.52C377.359 177.067 377.579 176.487 377.579 175.78C377.579 174.847 377.279 174.187 376.679 173.8C376.092 173.4 375.185 173.2 373.959 173.2H373.439V171.32H373.979C375.059 171.307 375.879 171.127 376.439 170.78C377.012 170.433 377.299 169.887 377.299 169.14C377.299 168.5 377.092 167.993 376.679 167.62C376.265 167.233 375.679 167.04 374.919 167.04C374.172 167.04 373.592 167.233 373.179 167.62C372.765 167.993 372.519 168.46 372.439 169.02H370.219ZM381.854 176.96V175.24L388.574 165.6H391.334V174.98H393.194V176.96H391.334V180H389.094V176.96H381.854ZM389.194 167.92L384.474 174.98H389.194V167.92Z" fill="white"/>
<path d="M62.8266 226.475L59.1726 236.205H57.3246L53.6566 226.475H55.3646L58.2486 234.567L61.1466 226.475H62.8266ZM70.0273 234.217H65.9533L65.2533 236.205H63.5873L67.0733 226.461H68.9213L72.4073 236.205H70.7273L70.0273 234.217ZM69.5793 232.915L67.9973 228.393L66.4013 232.915H69.5793ZM75.519 234.917H78.809V236.205H73.923V226.475H75.519V234.917ZM81.7398 226.475V236.205H80.1438V226.475H81.7398ZM87.0132 226.475C88.0492 226.475 88.9545 226.675 89.7292 227.077C90.5132 227.469 91.1152 228.038 91.5352 228.785C91.9645 229.522 92.1792 230.385 92.1792 231.375C92.1792 232.364 91.9645 233.223 91.5352 233.951C91.1152 234.679 90.5132 235.239 89.7292 235.631C88.9545 236.013 88.0492 236.205 87.0132 236.205H83.8352V226.475H87.0132ZM87.0132 234.903C88.1518 234.903 89.0245 234.595 89.6312 233.979C90.2378 233.363 90.5412 232.495 90.5412 231.375C90.5412 230.245 90.2378 229.363 89.6312 228.729C89.0245 228.094 88.1518 227.777 87.0132 227.777H85.4312V234.903H87.0132ZM103.684 226.475V227.777H101.094V236.205H99.4977V227.777H96.8937V226.475H103.684ZM113.07 226.475V236.205H111.474V231.949H106.896V236.205H105.3V226.475H106.896V230.647H111.474V226.475H113.07ZM120.225 236.205L117.985 232.313H116.767V236.205H115.171V226.475H118.531C119.278 226.475 119.908 226.605 120.421 226.867C120.944 227.128 121.331 227.478 121.583 227.917C121.844 228.355 121.975 228.845 121.975 229.387C121.975 230.021 121.788 230.6 121.415 231.123C121.051 231.636 120.486 231.986 119.721 232.173L122.129 236.205H120.225ZM116.767 231.039H118.531C119.128 231.039 119.576 230.889 119.875 230.591C120.183 230.292 120.337 229.891 120.337 229.387C120.337 228.883 120.188 228.491 119.889 228.211C119.59 227.921 119.138 227.777 118.531 227.777H116.767V231.039ZM125.599 226.475V232.677C125.599 233.414 125.79 233.969 126.173 234.343C126.565 234.716 127.106 234.903 127.797 234.903C128.497 234.903 129.038 234.716 129.421 234.343C129.813 233.969 130.009 233.414 130.009 232.677V226.475H131.605V232.649C131.605 233.442 131.432 234.114 131.087 234.665C130.741 235.215 130.279 235.626 129.701 235.897C129.122 236.167 128.483 236.303 127.783 236.303C127.083 236.303 126.443 236.167 125.865 235.897C125.295 235.626 124.843 235.215 124.507 234.665C124.171 234.114 124.003 233.442 124.003 232.649V226.475H125.599Z" fill="white" fill-opacity="0.6"/>
<path d="M54.3506 254.715C54.3506 252.869 54.66 251.429 55.2786 250.395C55.908 249.349 56.9853 248.827 58.5106 248.827C60.036 248.827 61.108 249.349 61.7266 250.395C62.356 251.429 62.6706 252.869 62.6706 254.715C62.6706 256.581 62.356 258.043 61.7266 259.099C61.108 260.144 60.036 260.667 58.5106 260.667C56.9853 260.667 55.908 260.144 55.2786 259.099C54.66 258.043 54.3506 256.581 54.3506 254.715ZM60.8786 254.715C60.8786 253.851 60.82 253.12 60.7026 252.523C60.596 251.925 60.372 251.44 60.0306 251.067C59.6893 250.683 59.1826 250.491 58.5106 250.491C57.8386 250.491 57.332 250.683 56.9906 251.067C56.6493 251.44 56.42 251.925 56.3026 252.523C56.196 253.12 56.1426 253.851 56.1426 254.715C56.1426 255.611 56.196 256.363 56.3026 256.971C56.4093 257.579 56.6333 258.069 56.9746 258.443C57.3266 258.816 57.8386 259.003 58.5106 259.003C59.1826 259.003 59.6893 258.816 60.0306 258.443C60.3826 258.069 60.612 257.579 60.7186 256.971C60.8253 256.363 60.8786 255.611 60.8786 254.715ZM66.5686 254.603C65.4593 254.048 64.9046 253.173 64.9046 251.979C64.9046 251.403 65.0486 250.875 65.3366 250.395C65.6246 249.915 66.0566 249.536 66.6326 249.259C67.2086 248.971 67.9126 248.827 68.7446 248.827C69.566 248.827 70.2646 248.971 70.8406 249.259C71.4273 249.536 71.8646 249.915 72.1526 250.395C72.4406 250.875 72.5846 251.403 72.5846 251.979C72.5846 252.576 72.43 253.104 72.1206 253.563C71.822 254.011 71.422 254.357 70.9206 254.603C71.5286 254.827 72.0086 255.195 72.3606 255.707C72.7126 256.208 72.8886 256.8 72.8886 257.483C72.8886 258.176 72.7126 258.789 72.3606 259.323C72.0086 259.856 71.518 260.267 70.8886 260.555C70.2593 260.843 69.5446 260.987 68.7446 260.987C67.9446 260.987 67.23 260.843 66.6006 260.555C65.982 260.267 65.4966 259.856 65.1446 259.323C64.7926 258.789 64.6166 258.176 64.6166 257.483C64.6166 256.789 64.7926 256.192 65.1446 255.691C65.4966 255.189 65.9713 254.827 66.5686 254.603ZM70.8406 252.203C70.8406 251.605 70.654 251.147 70.2806 250.827C69.9073 250.507 69.3953 250.347 68.7446 250.347C68.1046 250.347 67.598 250.507 67.2246 250.827C66.8513 251.147 66.6646 251.611 66.6646 252.219C66.6646 252.752 66.8566 253.189 67.2406 253.531C67.6353 253.861 68.1366 254.027 68.7446 254.027C69.3526 254.027 69.854 253.856 70.2486 253.515C70.6433 253.173 70.8406 252.736 70.8406 252.203ZM68.7446 255.403C68.0406 255.403 67.4646 255.579 67.0166 255.931C66.5793 256.272 66.3606 256.768 66.3606 257.419C66.3606 258.027 66.574 258.523 67.0006 258.907C67.4273 259.28 68.0086 259.467 68.7446 259.467C69.47 259.467 70.0406 259.275 70.4566 258.891C70.8833 258.507 71.0966 258.016 71.0966 257.419C71.0966 256.779 70.878 256.283 70.4406 255.931C70.014 255.579 69.4486 255.403 68.7446 255.403ZM80.9638 245.595L76.6118 263.499H74.8198L79.1558 245.595H80.9638ZM84.0305 258.219C85.0545 257.333 85.8598 256.608 86.4465 256.043C87.0438 255.467 87.5398 254.869 87.9345 254.251C88.3292 253.632 88.5265 253.013 88.5265 252.395C88.5265 251.755 88.3718 251.253 88.0625 250.891C87.7638 250.528 87.2892 250.347 86.6385 250.347C86.0092 250.347 85.5185 250.549 85.1665 250.955C84.8252 251.349 84.6438 251.883 84.6225 252.555H82.8625C82.8945 251.339 83.2572 250.411 83.9505 249.771C84.6545 249.12 85.5452 248.795 86.6225 248.795C87.7852 248.795 88.6918 249.115 89.3425 249.755C90.0038 250.395 90.3345 251.248 90.3345 252.315C90.3345 253.083 90.1372 253.824 89.7425 254.539C89.3585 255.243 88.8945 255.877 88.3505 256.443C87.8172 256.997 87.1345 257.643 86.3025 258.379L85.5825 259.019H90.6545V260.539H82.8785V259.211L84.0305 258.219ZM92.0169 250.699V249.035H95.3449V260.699H93.5049V250.699H92.0169Z" fill="white"/>
<path d="M171.697 231.319C171.697 230.367 171.917 229.513 172.355 228.757C172.803 228.001 173.405 227.413 174.161 226.993C174.927 226.563 175.762 226.349 176.667 226.349C177.703 226.349 178.623 226.605 179.425 227.119C180.237 227.623 180.825 228.341 181.189 229.275H179.271C179.019 228.761 178.669 228.379 178.221 228.127C177.773 227.875 177.255 227.749 176.667 227.749C176.023 227.749 175.449 227.893 174.945 228.183C174.441 228.472 174.045 228.887 173.755 229.429C173.475 229.97 173.335 230.6 173.335 231.319C173.335 232.037 173.475 232.667 173.755 233.209C174.045 233.75 174.441 234.17 174.945 234.469C175.449 234.758 176.023 234.903 176.667 234.903C177.255 234.903 177.773 234.777 178.221 234.525C178.669 234.273 179.019 233.89 179.271 233.377H181.189C180.825 234.31 180.237 235.029 179.425 235.533C178.623 236.037 177.703 236.289 176.667 236.289C175.753 236.289 174.917 236.079 174.161 235.659C173.405 235.229 172.803 234.637 172.355 233.881C171.917 233.125 171.697 232.271 171.697 231.319ZM188.923 234.217H184.849L184.149 236.205H182.483L185.969 226.461H187.817L191.303 236.205H189.623L188.923 234.217ZM188.475 232.915L186.893 228.393L185.297 232.915H188.475ZM197.873 236.205L195.633 232.313H194.415V236.205H192.819V226.475H196.179C196.926 226.475 197.556 226.605 198.069 226.867C198.592 227.128 198.979 227.478 199.231 227.917C199.492 228.355 199.623 228.845 199.623 229.387C199.623 230.021 199.436 230.6 199.063 231.123C198.699 231.636 198.134 231.986 197.369 232.173L199.777 236.205H197.873ZM194.415 231.039H196.179C196.776 231.039 197.224 230.889 197.523 230.591C197.831 230.292 197.985 229.891 197.985 229.387C197.985 228.883 197.836 228.491 197.537 228.211C197.238 227.921 196.786 227.777 196.179 227.777H194.415V231.039ZM204.843 226.475C205.879 226.475 206.784 226.675 207.559 227.077C208.343 227.469 208.945 228.038 209.365 228.785C209.794 229.522 210.009 230.385 210.009 231.375C210.009 232.364 209.794 233.223 209.365 233.951C208.945 234.679 208.343 235.239 207.559 235.631C206.784 236.013 205.879 236.205 204.843 236.205H201.665V226.475H204.843ZM204.843 234.903C205.981 234.903 206.854 234.595 207.461 233.979C208.067 233.363 208.371 232.495 208.371 231.375C208.371 230.245 208.067 229.363 207.461 228.729C206.854 228.094 205.981 227.777 204.843 227.777H203.261V234.903H204.843ZM222.997 226.475V236.205H221.401V231.949H216.823V236.205H215.227V226.475H216.823V230.647H221.401V226.475H222.997ZM229.536 236.303C228.631 236.303 227.796 236.093 227.03 235.673C226.274 235.243 225.672 234.651 225.224 233.895C224.786 233.129 224.566 232.271 224.566 231.319C224.566 230.367 224.786 229.513 225.224 228.757C225.672 228.001 226.274 227.413 227.03 226.993C227.796 226.563 228.631 226.349 229.536 226.349C230.451 226.349 231.286 226.563 232.042 226.993C232.808 227.413 233.41 228.001 233.848 228.757C234.287 229.513 234.506 230.367 234.506 231.319C234.506 232.271 234.287 233.129 233.848 233.895C233.41 234.651 232.808 235.243 232.042 235.673C231.286 236.093 230.451 236.303 229.536 236.303ZM229.536 234.917C230.18 234.917 230.754 234.772 231.258 234.483C231.762 234.184 232.154 233.764 232.434 233.223C232.724 232.672 232.868 232.037 232.868 231.319C232.868 230.6 232.724 229.97 232.434 229.429C232.154 228.887 231.762 228.472 231.258 228.183C230.754 227.893 230.18 227.749 229.536 227.749C228.892 227.749 228.318 227.893 227.814 228.183C227.31 228.472 226.914 228.887 226.624 229.429C226.344 229.97 226.204 230.6 226.204 231.319C226.204 232.037 226.344 232.672 226.624 233.223C226.914 233.764 227.31 234.184 227.814 234.483C228.318 234.772 228.892 234.917 229.536 234.917ZM237.673 234.917H240.963V236.205H236.077V226.475H237.673V234.917ZM245.476 226.475C246.512 226.475 247.417 226.675 248.192 227.077C248.976 227.469 249.578 228.038 249.998 228.785C250.427 229.522 250.642 230.385 250.642 231.375C250.642 232.364 250.427 233.223 249.998 233.951C249.578 234.679 248.976 235.239 248.192 235.631C247.417 236.013 246.512 236.205 245.476 236.205H242.298V226.475H245.476ZM245.476 234.903C246.614 234.903 247.487 234.595 248.094 233.979C248.7 233.363 249.004 232.495 249.004 231.375C249.004 230.245 248.7 229.363 248.094 228.729C247.487 228.094 246.614 227.777 245.476 227.777H243.894V234.903H245.476ZM253.819 227.763V230.619H257.179V231.921H253.819V234.903H257.599V236.205H252.223V226.461H257.599V227.763H253.819ZM264.619 236.205L262.379 232.313H261.161V236.205H259.565V226.475H262.925C263.672 226.475 264.302 226.605 264.815 226.867C265.338 227.128 265.725 227.478 265.977 227.917C266.238 228.355 266.369 228.845 266.369 229.387C266.369 230.021 266.182 230.6 265.809 231.123C265.445 231.636 264.88 231.986 264.115 232.173L266.523 236.205H264.619ZM261.161 231.039H262.925C263.522 231.039 263.97 230.889 264.269 230.591C264.577 230.292 264.731 229.891 264.731 229.387C264.731 228.883 264.582 228.491 264.283 228.211C263.984 227.921 263.532 227.777 262.925 227.777H261.161V231.039Z" fill="white" fill-opacity="0.6"/>
<path d="M178.923 249.579V251.067H174.203V254.347H177.883V255.835H174.203V260.699H172.379V249.579H178.923ZM182.438 253.163C182.704 252.715 183.056 252.368 183.494 252.123C183.942 251.867 184.47 251.739 185.078 251.739V253.627H184.614C183.899 253.627 183.355 253.808 182.982 254.171C182.619 254.533 182.438 255.163 182.438 256.059V260.699H180.614V251.883H182.438V253.163ZM186.146 256.251C186.146 255.365 186.328 254.581 186.69 253.899C187.064 253.216 187.565 252.688 188.194 252.315C188.834 251.931 189.538 251.739 190.306 251.739C191 251.739 191.602 251.877 192.114 252.155C192.637 252.421 193.053 252.757 193.362 253.163V251.883H195.202V260.699H193.362V259.387C193.053 259.803 192.632 260.149 192.098 260.427C191.565 260.704 190.957 260.843 190.274 260.843C189.517 260.843 188.824 260.651 188.194 260.267C187.565 259.872 187.064 259.328 186.69 258.635C186.328 257.931 186.146 257.136 186.146 256.251ZM193.362 256.283C193.362 255.675 193.234 255.147 192.978 254.699C192.733 254.251 192.408 253.909 192.002 253.675C191.597 253.44 191.16 253.323 190.69 253.323C190.221 253.323 189.784 253.44 189.378 253.675C188.973 253.899 188.642 254.235 188.386 254.683C188.141 255.12 188.018 255.643 188.018 256.251C188.018 256.859 188.141 257.392 188.386 257.851C188.642 258.309 188.973 258.661 189.378 258.907C189.794 259.141 190.232 259.259 190.69 259.259C191.16 259.259 191.597 259.141 192.002 258.907C192.408 258.672 192.733 258.331 192.978 257.883C193.234 257.424 193.362 256.891 193.362 256.283ZM202.046 251.739C202.739 251.739 203.358 251.883 203.902 252.171C204.457 252.459 204.889 252.885 205.198 253.451C205.507 254.016 205.662 254.699 205.662 255.499V260.699H203.854V255.771C203.854 254.981 203.657 254.379 203.262 253.963C202.867 253.536 202.329 253.323 201.646 253.323C200.963 253.323 200.419 253.536 200.014 253.963C199.619 254.379 199.422 254.981 199.422 255.771V260.699H197.598V251.883H199.422V252.891C199.721 252.528 200.099 252.245 200.558 252.043C201.027 251.84 201.523 251.739 202.046 251.739ZM211.477 256.299L215.541 260.699H213.077L209.813 256.907V260.699H207.989V248.859H209.813V255.739L213.013 251.883H215.541L211.477 256.299ZM218.672 248.859V260.699H216.848V248.859H218.672ZM221.995 250.715C221.664 250.715 221.387 250.603 221.163 250.379C220.939 250.155 220.827 249.877 220.827 249.547C220.827 249.216 220.939 248.939 221.163 248.715C221.387 248.491 221.664 248.379 221.995 248.379C222.315 248.379 222.587 248.491 222.811 248.715C223.035 248.939 223.147 249.216 223.147 249.547C223.147 249.877 223.035 250.155 222.811 250.379C222.587 250.603 222.315 250.715 221.995 250.715ZM222.891 251.883V260.699H221.067V251.883H222.891ZM229.733 251.739C230.427 251.739 231.045 251.883 231.589 252.171C232.144 252.459 232.576 252.885 232.885 253.451C233.195 254.016 233.349 254.699 233.349 255.499V260.699H231.541V255.771C231.541 254.981 231.344 254.379 230.949 253.963C230.555 253.536 230.016 253.323 229.333 253.323C228.651 253.323 228.107 253.536 227.701 253.963C227.307 254.379 227.109 254.981 227.109 255.771V260.699H225.285V251.883H227.109V252.891C227.408 252.528 227.787 252.245 228.245 252.043C228.715 251.84 229.211 251.739 229.733 251.739ZM245.896 249.579V257.595C245.896 258.587 245.592 259.371 244.984 259.947C244.387 260.523 243.598 260.811 242.616 260.811C241.635 260.811 240.84 260.523 240.232 259.947C239.635 259.371 239.336 258.587 239.336 257.595H241.176C241.187 258.085 241.31 258.475 241.544 258.763C241.79 259.051 242.147 259.195 242.616 259.195C243.086 259.195 243.443 259.051 243.688 258.763C243.934 258.464 244.056 258.075 244.056 257.595V249.579H245.896ZM250.688 253.163C250.954 252.715 251.306 252.368 251.744 252.123C252.192 251.867 252.72 251.739 253.328 251.739V253.627H252.864C252.149 253.627 251.605 253.808 251.232 254.171C250.869 254.533 250.688 255.163 250.688 256.059V260.699H248.864V251.883H250.688V253.163ZM255.74 260.811C255.41 260.811 255.132 260.699 254.908 260.475C254.684 260.251 254.572 259.973 254.572 259.643C254.572 259.312 254.684 259.035 254.908 258.811C255.132 258.587 255.41 258.475 255.74 258.475C256.06 258.475 256.332 258.587 256.556 258.811C256.78 259.035 256.892 259.312 256.892 259.643C256.892 259.973 256.78 260.251 256.556 260.475C256.332 260.699 256.06 260.811 255.74 260.811Z" fill="white"/>
<defs>
<filter id="filter0_d_222_1154" x="0" y="0" width="464.446" height="321.724" filterUnits="userSpaceOnUse" color-interpolation-filters="sRGB">
<feFlood flood-opacity="0" result="BackgroundImageFix"/>
<feColorMatrix in="SourceAlpha" type="matrix" values="0 0 0 0 0 0 0 0 0 0 0 0 0 0 0 0 0 0 127 0" result="hardAlpha"/>
<feOffset dy="5"/>
<feGaussianBlur stdDeviation="9.5"/>
<feColorMatrix type="matrix" values="0 0 0 0 0.116788 0 0 0 0 0.667953 0 0 0 0 0.904167 0 0 0 0.27 0"/>
<feBlend mode="normal" in2="BackgroundImageFix" result="effect1_dropShadow_222_1154"/>
<feBlend mode="normal" in="SourceGraphic" in2="effect1_dropShadow_222_1154" result="shape"/>
</filter>
</defs>
</svg>
