<svg width="19" height="29" viewBox="0 0 19 29" fill="none" xmlns="http://www.w3.org/2000/svg">
<path d="M0.4375 3.625C0.4375 2.66359 0.819418 1.74156 1.49924 1.06174C2.17906 0.381919 3.10109 0 4.0625 0L14.9375 0C15.8989 0 16.8209 0.381919 17.5008 1.06174C18.1806 1.74156 18.5625 2.66359 18.5625 3.625V25.375C18.5625 26.3364 18.1806 27.2584 17.5008 27.9383C16.8209 28.6181 15.8989 29 14.9375 29H4.0625C3.10109 29 2.17906 28.6181 1.49924 27.9383C0.819418 27.2584 0.4375 26.3364 0.4375 25.375V3.625ZM11.3125 23.5625C11.3125 23.0818 11.1215 22.6208 10.7816 22.2809C10.4417 21.941 9.98071 21.75 9.5 21.75C9.01929 21.75 8.55828 21.941 8.21837 22.2809C7.87846 22.6208 7.6875 23.0818 7.6875 23.5625C7.6875 24.0432 7.87846 24.5042 8.21837 24.8441C8.55828 25.184 9.01929 25.375 9.5 25.375C9.98071 25.375 10.4417 25.184 10.7816 24.8441C11.1215 24.5042 11.3125 24.0432 11.3125 23.5625Z" fill="black"/>
</svg>
