<svg width="20" height="20" viewBox="0 0 20 20" fill="none" xmlns="http://www.w3.org/2000/svg">
<path d="M8.19151 9.99336C8.19151 10.8867 8.91574 11.611 9.80913 11.611C10.7025 11.611 11.4268 10.8867 11.4268 9.99336C11.4268 9.09997 10.7025 8.37573 9.80913 8.37573C8.91574 8.37573 8.19151 9.09997 8.19151 9.99336Z" fill="black"/>
<path d="M8.19151 3.5229C8.19151 4.41629 8.91574 5.14053 9.80913 5.14053C10.7025 5.14053 11.4268 4.41629 11.4268 3.5229C11.4268 2.62951 10.7025 1.90527 9.80913 1.90527C8.91574 1.90527 8.19151 2.62951 8.19151 3.5229Z" fill="black"/>
<path d="M8.19151 16.4638C8.19151 17.3572 8.91574 18.0814 9.80913 18.0814C10.7025 18.0814 11.4268 17.3572 11.4268 16.4638C11.4268 15.5704 10.7025 14.8462 9.80913 14.8462C8.91574 14.8462 8.19151 15.5704 8.19151 16.4638Z" fill="black"/>
</svg>
