<svg width="21" height="30" viewBox="0 0 21 30" fill="none" xmlns="http://www.w3.org/2000/svg">
<path d="M0.0875001 15.04C0.0875001 10.4267 0.860834 6.82666 2.4075 4.24C3.98083 1.62666 6.67417 0.319998 10.4875 0.319998C14.3008 0.319998 16.9808 1.62666 18.5275 4.24C20.1008 6.82666 20.8875 10.4267 20.8875 15.04C20.8875 19.7067 20.1008 23.36 18.5275 26C16.9808 28.6133 14.3008 29.92 10.4875 29.92C6.67417 29.92 3.98083 28.6133 2.4075 26C0.860834 23.36 0.0875001 19.7067 0.0875001 15.04ZM16.4075 15.04C16.4075 12.88 16.2608 11.0533 15.9675 9.56C15.7008 8.06667 15.1408 6.85333 14.2875 5.92C13.4342 4.96 12.1675 4.48 10.4875 4.48C8.8075 4.48 7.54083 4.96 6.6875 5.92C5.83417 6.85333 5.26083 8.06667 4.9675 9.56C4.70083 11.0533 4.5675 12.88 4.5675 15.04C4.5675 17.28 4.70083 19.16 4.9675 20.68C5.23417 22.2 5.79417 23.4267 6.6475 24.36C7.5275 25.2933 8.8075 25.76 10.4875 25.76C12.1675 25.76 13.4342 25.2933 14.2875 24.36C15.1675 23.4267 15.7408 22.2 16.0075 20.68C16.2742 19.16 16.4075 17.28 16.4075 15.04Z" fill="#174532"/>
</svg>
