<svg width="84" height="67" viewBox="0 0 84 67" fill="none" xmlns="http://www.w3.org/2000/svg">
<path d="M70.2188 0.920169C71.4525 -0.306376 73.4475 -0.306376 74.5631 0.920038L82.9631 9.29386C83.6719 9.88273 84 10.6823 84 11.5145C84 12.3481 83.6719 13.1516 82.9631 13.6227L74.5631 21.9977C73.4475 23.3325 71.4525 23.3325 70.2188 21.9977C68.9981 20.8854 68.9981 18.8963 70.2188 17.6662L73.2506 14.5387H50.4C48.6544 14.5387 47.25 13.2432 47.25 11.5145C47.25 9.78066 48.6544 8.37392 50.4 8.37392L73.2506 8.25745L70.2188 5.36154C68.9981 4.13538 68.9981 2.14632 70.2188 0.920169ZM13.6631 49.2164L10.7546 52.344L33.4819 52.2262C35.3456 52.2262 36.6319 53.7442 36.6319 55.3668C36.6319 57.2119 35.3456 58.5075 33.4819 58.5075L10.7559 58.6252L13.6631 61.635C15.0019 62.8651 15.0019 64.8541 13.6631 65.9664C12.5475 67.3012 10.5525 67.3012 9.32269 65.9664L0.922556 57.5914C0.3318 57.1203 -0.000131211 56.3221 3.89087e-08 55.3668C3.89087e-08 54.6471 0.331931 53.8489 0.922688 53.26L9.32269 44.885C10.5525 43.668 12.5475 43.668 13.6631 44.885C15.0019 46.1151 15.0019 48.1041 13.6631 49.2164ZM12.4819 8.37523H44.3494C43.8506 9.3148 43.575 10.3826 43.575 11.3981C43.575 15.2715 46.6331 18.2028 50.4 18.2028H63.1444C63.5775 20.6106 64.9556 22.5735 66.8587 23.8035C67.0819 24.1176 67.3444 24.4186 67.62 24.7065C70.2844 27.3629 74.6156 27.3629 77.28 24.7065L79.8 22.1809V50.2502C79.8 54.8696 76.0331 58.6252 71.4 58.6252H39.6506C40.1494 57.683 40.3069 56.6231 40.3069 55.3668C40.3069 51.7289 37.3669 48.5621 33.4819 48.5621L20.8556 48.6799C20.4094 46.3899 19.0444 44.427 17.1413 43.1969C16.9181 42.8828 16.6556 42.5819 16.38 42.294C13.7156 39.6375 9.38962 39.6375 6.72394 42.294L4.08187 44.8196V16.7502C4.08187 12.1243 7.96031 8.37523 12.4819 8.37523ZM12.4819 25.1252C17.2331 25.1252 20.8819 21.3696 20.8819 16.7502H12.4819V25.1252ZM71.4 50.2502V41.8752C66.7669 41.8752 63 45.6309 63 50.2502H71.4ZM41.8819 46.0627C48.9562 46.0627 54.6 40.4358 54.6 33.5002C54.6 26.4469 48.9562 20.9377 41.8819 20.9377C34.9256 20.9377 29.2819 26.4469 29.2819 33.5002C29.2819 40.4358 34.9256 46.0627 41.8819 46.0627Z" fill="#174532"/>
</svg>
