<svg width="33" height="51" viewBox="0 0 33 51" fill="none" xmlns="http://www.w3.org/2000/svg">
<path d="M0.875 6.75C0.875 5.0924 1.53348 3.50269 2.70558 2.33058C3.87768 1.15848 5.4674 0.5 7.125 0.5L25.875 0.5C27.5326 0.5 29.1223 1.15848 30.2944 2.33058C31.4665 3.50269 32.125 5.0924 32.125 6.75V44.25C32.125 45.9076 31.4665 47.4973 30.2944 48.6694C29.1223 49.8415 27.5326 50.5 25.875 50.5H7.125C5.4674 50.5 3.87768 49.8415 2.70558 48.6694C1.53348 47.4973 0.875 45.9076 0.875 44.25V6.75ZM19.625 41.125C19.625 40.2962 19.2958 39.5013 18.7097 38.9153C18.1237 38.3292 17.3288 38 16.5 38C15.6712 38 14.8763 38.3292 14.2903 38.9153C13.7042 39.5013 13.375 40.2962 13.375 41.125C13.375 41.9538 13.7042 42.7487 14.2903 43.3347C14.8763 43.9208 15.6712 44.25 16.5 44.25C17.3288 44.25 18.1237 43.9208 18.7097 43.3347C19.2958 42.7487 19.625 41.9538 19.625 41.125Z" fill="#9BC94A"/>
</svg>
