<svg width="47" height="42" viewBox="0 0 47 42" fill="none" xmlns="http://www.w3.org/2000/svg">
<path d="M44.5531 14.6609C43.3892 11.9059 41.7017 9.40289 39.5844 7.29062C37.4721 5.17326 34.9691 3.48583 32.2141 2.32187C29.3519 1.11074 26.3188 0.5 23.1875 0.5C20.0562 0.5 17.0231 1.11074 14.1609 2.32187C11.4059 3.48583 8.90289 5.17326 6.79062 7.29062C4.67326 9.40289 2.98583 11.9059 1.82187 14.6609C0.610742 17.5231 0 20.5562 0 23.6875C0 30.5558 3.01748 37.0255 8.27607 41.4456L8.36406 41.5181C8.66426 41.7665 9.04209 41.9062 9.43027 41.9062H36.9499C37.3381 41.9062 37.7159 41.7665 38.0161 41.5181L38.1041 41.4456C43.3575 37.0255 46.375 30.5558 46.375 23.6875C46.375 20.5562 45.7591 17.5231 44.5531 14.6609ZM21.6348 6.71094C21.6348 6.4832 21.8211 6.29688 22.0488 6.29688H24.3262C24.5539 6.29688 24.7402 6.4832 24.7402 6.71094V10.8516C24.7402 11.0793 24.5539 11.2656 24.3262 11.2656H22.0488C21.8211 11.2656 21.6348 11.0793 21.6348 10.8516V6.71094ZM10.6621 24.8262C10.6621 25.0539 10.4758 25.2402 10.248 25.2402H6.10742C5.87969 25.2402 5.69336 25.0539 5.69336 24.8262V22.5488C5.69336 22.3211 5.87969 22.1348 6.10742 22.1348H10.248C10.4758 22.1348 10.6621 22.3211 10.6621 22.5488V24.8262ZM15.3565 14.2417L13.7469 15.8514C13.6691 15.9284 13.564 15.9717 13.4544 15.9717C13.3449 15.9717 13.2398 15.9284 13.162 15.8514L10.2325 12.9219C10.1555 12.8441 10.1122 12.739 10.1122 12.6294C10.1122 12.5199 10.1555 12.4148 10.2325 12.337L11.8422 10.7273C12.0026 10.5669 12.2666 10.5669 12.4271 10.7273L15.3565 13.6568C15.517 13.8173 15.517 14.0813 15.3565 14.2417ZM30.4232 18.5687L26.0497 22.9422C26.3085 23.9101 26.0601 24.9814 25.2992 25.7423C25.0302 26.0118 24.7108 26.2256 24.3591 26.3714C24.0074 26.5173 23.6304 26.5924 23.2496 26.5924C22.8689 26.5924 22.4918 26.5173 22.1402 26.3714C21.7885 26.2256 21.469 26.0118 21.2 25.7423C20.9305 25.4733 20.7167 25.1538 20.5708 24.8021C20.425 24.4504 20.3499 24.0734 20.3499 23.6927C20.3499 23.3119 20.425 22.9349 20.5708 22.5832C20.7167 22.2315 20.9305 21.912 21.2 21.6431C21.5594 21.2826 22.0075 21.0234 22.4992 20.8916C22.9909 20.7598 23.5086 20.7602 24.0001 20.8926L28.3736 16.519C28.5341 16.3586 28.798 16.3586 28.9585 16.519L30.4232 17.9838C30.5837 18.1442 30.5837 18.403 30.4232 18.5687ZM32.6488 15.8565L31.0392 14.2469C30.9621 14.1691 30.9189 14.064 30.9189 13.9544C30.9189 13.8449 30.9621 13.7398 31.0392 13.662L33.9687 10.7325C34.1291 10.5721 34.3931 10.5721 34.5535 10.7325L36.1632 12.3422C36.3236 12.5026 36.3236 12.7666 36.1632 12.9271L33.2337 15.8565C33.1559 15.9336 33.0508 15.9768 32.9413 15.9768C32.8317 15.9768 32.7267 15.9336 32.6488 15.8565ZM40.4746 24.8262C40.4746 25.0539 40.2883 25.2402 40.0605 25.2402H35.9199C35.6922 25.2402 35.5059 25.0539 35.5059 24.8262V22.5488C35.5059 22.3211 35.6922 22.1348 35.9199 22.1348H40.0605C40.2883 22.1348 40.4746 22.3211 40.4746 22.5488V24.8262Z" fill="#9BC94A"/>
</svg>
