<svg width="46" height="35" viewBox="0 0 46 35" fill="none" xmlns="http://www.w3.org/2000/svg">
<path d="M37.5835 21.6666V4.99992C37.5835 2.70825 35.7085 0.833252 33.4168 0.833252H4.25016C1.9585 0.833252 0.0834961 2.70825 0.0834961 4.99992V21.6666C0.0834961 23.9583 1.9585 25.8333 4.25016 25.8333H33.4168C35.7085 25.8333 37.5835 23.9583 37.5835 21.6666ZM18.8335 19.5833C15.3752 19.5833 12.5835 16.7916 12.5835 13.3333C12.5835 9.87492 15.3752 7.08325 18.8335 7.08325C22.2918 7.08325 25.0835 9.87492 25.0835 13.3333C25.0835 16.7916 22.2918 19.5833 18.8335 19.5833ZM45.9168 7.08325V29.9999C45.9168 32.2916 44.0418 34.1666 41.7502 34.1666H6.3335V29.9999H41.7502V7.08325H45.9168Z" fill="#9BC94A"/>
</svg>
