<svg width="50" height="40" viewBox="0 0 50 40" fill="none" xmlns="http://www.w3.org/2000/svg">
<path d="M41.4609 1.03574C42.1806 0.321433 43.3444 0.321433 43.9952 1.03566L48.8952 5.91236C49.3086 6.2553 49.5 6.72094 49.5 7.20563C49.5 7.69108 49.3086 8.15901 48.8952 8.43336L43.9952 13.3107C43.3444 14.0881 42.1806 14.0881 41.4609 13.3107C40.7489 12.663 40.7489 11.5046 41.4609 10.7882L43.2295 8.96682H29.9C28.8817 8.96682 28.0625 8.21235 28.0625 7.20563C28.0625 6.19586 28.8817 5.37661 29.9 5.37661L43.2295 5.30878L41.4609 3.62228C40.7489 2.9082 40.7489 1.74982 41.4609 1.03574ZM8.47016 29.1622L6.77353 30.9836L20.0311 30.915C21.1183 30.915 21.8686 31.7991 21.8686 32.7441C21.8686 33.8186 21.1183 34.5731 20.0311 34.5731L6.7743 34.6417L8.47016 36.3945C9.25109 37.1108 9.25109 38.2692 8.47016 38.917C7.81938 39.6943 6.65562 39.6943 5.93823 38.917L1.03816 34.0396C0.69355 33.7653 0.499923 33.3004 0.5 32.7441C0.5 32.3249 0.693627 31.86 1.03823 31.5171L5.93823 26.6397C6.65562 25.931 7.81938 25.931 8.47016 26.6397C9.25109 27.3561 9.25109 28.5145 8.47016 29.1622ZM7.78109 5.37737H26.3705C26.0795 5.92455 25.9188 6.54642 25.9188 7.1378C25.9188 9.39359 27.7027 11.1007 29.9 11.1007H37.3342C37.5869 12.5029 38.3908 13.6461 39.5009 14.3624C39.6311 14.5453 39.7842 14.7206 39.945 14.8883C41.4992 16.4353 44.0258 16.4353 45.58 14.8883L47.05 13.4174V29.7643C47.05 32.4545 44.8527 34.6417 42.15 34.6417H23.6295C23.9205 34.093 24.0123 33.4757 24.0123 32.7441C24.0123 30.6255 22.2973 28.7812 20.0311 28.7812L12.6658 28.8498C12.4055 27.5161 11.6092 26.373 10.4991 25.6566C10.3689 25.4737 10.2158 25.2984 10.055 25.1308C8.50078 23.5837 5.97728 23.5837 4.4223 25.1308L2.88109 26.6016V10.2548C2.88109 7.56076 5.14352 5.37737 7.78109 5.37737ZM7.78109 15.1321C10.5527 15.1321 12.6811 12.9449 12.6811 10.2548H7.78109V15.1321ZM42.15 29.7643V24.8869C39.4473 24.8869 37.25 27.0741 37.25 29.7643H42.15ZM24.9311 27.3256C29.0578 27.3256 32.35 24.0486 32.35 20.0095C32.35 15.9019 29.0578 12.6934 24.9311 12.6934C20.8733 12.6934 17.5811 15.9019 17.5811 20.0095C17.5811 24.0486 20.8733 27.3256 24.9311 27.3256Z" fill="#9BC94A"/>
</svg>
