<svg width="40" height="41" viewBox="0 0 40 41" fill="none" xmlns="http://www.w3.org/2000/svg">
<path d="M12.2293 22.5833V16.3333C12.2293 11.4583 16.2085 7.47917 21.0835 7.47917H24.6668C24.396 3.41667 21.0418 0.1875 16.9168 0.1875H8.5835C4.271 0.1875 0.770996 3.6875 0.770996 8V33C0.770996 37.3125 4.271 40.8125 8.5835 40.8125H16.9168C21.2293 40.8125 24.7293 37.3125 24.7293 33V31.4375H21.0835C16.2085 31.4375 12.2293 27.4583 12.2293 22.5833ZM14.8335 37.1667H10.6668C9.81266 37.1667 9.10433 36.4583 9.10433 35.6042C9.10433 34.75 9.81266 34.0417 10.6668 34.0417H14.8335C15.6877 34.0417 16.396 34.75 16.396 35.6042C16.396 36.4583 15.6877 37.1667 14.8335 37.1667Z" fill="#9BC94A"/>
<path d="M33.5837 10.6042H21.0837C17.917 10.6042 15.3545 13.1667 15.3545 16.3334V16.8542H39.3128V16.3334C39.3128 13.1667 36.7503 10.6042 33.5837 10.6042Z" fill="#9BC94A"/>
<path d="M15.3545 22.5834C15.3545 25.7501 17.917 28.3126 21.0837 28.3126H33.5837C36.7503 28.3126 39.3128 25.7501 39.3128 22.5834V19.9792H15.3545V22.5834Z" fill="#9BC94A"/>
</svg>
